<svg width="180" height="30" viewBox="0 0 180 30" fill="none" xmlns="http://www.w3.org/2000/svg">
<path d="M15.2858 4.9018C15.5034 4.9018 15.7136 4.8673 15.911 4.80347L19.4161 8.3333C19.3642 8.51779 19.3365 8.71219 19.3365 8.9124C19.3365 10.0661 20.2578 11.0206 21.4179 11.0206C22.578 11.0206 23.4994 10.0661 23.4994 8.9124C23.4994 7.75873 22.578 6.80424 21.4179 6.80424C21.3082 6.80424 21.2002 6.81289 21.0946 6.82961L17.3478 3.05634C17.3607 2.96003 17.3673 2.86189 17.3673 2.76242C17.3673 1.60381 16.4579 0.623047 15.2858 0.623047C14.1138 0.623047 13.2044 1.60381 13.2044 2.76242C13.2044 2.85567 13.2102 2.94774 13.2216 3.03824L9.46951 6.83261C9.35642 6.81393 9.24054 6.80424 9.12271 6.80424C7.95778 6.80424 7.01059 7.74654 7.01059 8.9124C7.01059 10.0783 7.95778 11.0206 9.12271 11.0206C9.34008 11.0206 9.55044 10.9876 9.74864 10.9263L13.2663 14.5195C13.2258 14.6837 13.2044 14.8552 13.2044 15.0311C13.2044 16.1848 14.1257 17.1393 15.2858 17.1393C15.4535 17.1393 15.617 17.1191 15.7738 17.0809L19.3726 20.7571C19.3489 20.8846 19.3365 21.016 19.3365 21.1499C19.3365 21.3204 19.3566 21.4868 19.3947 21.6465L15.8556 25.2406C15.6742 25.1884 15.483 25.1605 15.2858 25.1605C15.0831 25.1605 14.8866 25.19 14.7007 25.2451L11.175 21.6496C11.2141 21.489 11.2348 21.3216 11.2348 21.1499C11.2348 19.984 10.2877 19.0417 9.12271 19.0417C7.95778 19.0417 7.01059 19.984 7.01059 21.1499C7.01059 22.3157 7.95778 23.258 9.12271 23.258C9.27104 23.258 9.41622 23.2427 9.55658 23.2134L13.2271 26.9566C13.2121 27.0586 13.2044 27.1628 13.2044 27.2686C13.2044 28.4223 14.1258 29.3768 15.2858 29.3768C16.4459 29.3768 17.3673 28.4223 17.3673 27.2686C17.3673 27.1566 17.3586 27.0464 17.3419 26.9386L21.0068 23.2168C21.14 23.2439 21.2775 23.258 21.4179 23.258C22.578 23.258 23.4994 22.3035 23.4994 21.1499C23.4994 19.9962 22.578 19.0417 21.4179 19.0417C21.2416 19.0417 21.0699 19.0641 20.9058 19.1062L17.3262 15.4496C17.3532 15.314 17.3673 15.174 17.3673 15.0311C17.3673 13.8775 16.4459 12.923 15.2858 12.923C15.1508 12.923 15.0184 12.9361 14.89 12.9612L11.2144 9.20652C11.2279 9.1102 11.2348 9.01199 11.2348 8.9124C11.2348 8.7111 11.2064 8.5158 11.1532 8.33062L14.6459 4.79862C14.8476 4.86555 15.0628 4.9018 15.2858 4.9018ZM27.6117 17.1393C28.7718 17.1393 29.6932 16.1848 29.6932 15.0311C29.6932 13.8775 28.7718 12.923 27.6117 12.923C26.4516 12.923 25.5303 13.8775 25.5303 15.0311C25.5303 16.1848 26.4516 17.1393 27.6117 17.1393ZM3.05158 17.1393C4.21651 17.1393 5.1637 16.197 5.1637 15.0311C5.1637 13.8653 4.21651 12.923 3.05158 12.923C1.88664 12.923 0.939453 13.8653 0.939453 15.0311C0.939453 16.197 1.88664 17.1393 3.05158 17.1393Z" fill="#00145C" stroke="#00145C" strokeWidth="0.5" strokeLinecap="round" strokeLinejoin="round"/>
<mask id="path-2-outside-1_205_4454" maskUnits="userSpaceOnUse" x="0" y="-0.316406" width="31" height="31" fill="black">
<rect fill="white" y="-0.316406" width="31" height="31"/>
<path fillRule="evenodd" clipRule="evenodd" d="M15.9274 4.73388C15.7257 4.8033 15.5098 4.84101 15.2857 4.84101C15.0561 4.84101 14.8352 4.80144 14.6294 4.72877L11.0847 8.31335C11.1428 8.50316 11.174 8.70439 11.174 8.91228C11.174 9.01917 11.1658 9.12442 11.1498 9.22733L14.8697 13.0271C15.0042 12.9985 15.1434 12.9835 15.2857 12.9835C16.4112 12.9835 17.3065 13.9098 17.3065 15.031C17.3065 15.1809 17.2905 15.3274 17.2601 15.4689L20.8871 19.1737C21.0565 19.1271 21.2345 19.1023 21.4178 19.1023C22.5433 19.1023 23.4386 20.0285 23.4386 21.1497C23.4386 22.271 22.5433 23.1972 21.4178 23.1972C21.2702 23.1972 21.1259 23.1811 20.9867 23.1504L17.2769 26.9179C17.2964 27.0321 17.3065 27.1493 17.3065 27.2685C17.3065 28.3897 16.4112 29.316 15.2857 29.316C14.1602 29.316 13.2649 28.3897 13.2649 27.2685C13.2649 27.1554 13.274 27.0442 13.2916 26.9356L9.57633 23.1469C9.43004 23.1799 9.27811 23.1972 9.12259 23.1972C7.991 23.1972 7.07114 22.2819 7.07114 21.1497C7.07114 20.0176 7.991 19.1023 9.12259 19.1023C10.2542 19.1023 11.174 20.0176 11.174 21.1497C11.174 21.3282 11.151 21.5019 11.1077 21.6676L14.6831 25.3137C14.8737 25.2535 15.0762 25.221 15.2857 25.221C15.4896 25.221 15.6869 25.2518 15.8731 25.309L19.4616 21.6647C19.4194 21.4998 19.397 21.3271 19.397 21.1497C19.397 21.0088 19.4111 20.8708 19.4382 20.7372L15.7926 17.0134C15.6304 17.0559 15.4604 17.0785 15.2857 17.0785C14.1602 17.0785 13.2649 16.1523 13.2649 15.031C13.2649 14.8484 13.2887 14.6707 13.3333 14.5013L9.7657 10.857C9.56303 10.9237 9.34668 10.9598 9.12259 10.9598C7.991 10.9598 7.07114 10.0445 7.07114 8.91228C7.07114 7.78008 7.991 6.86479 9.12259 6.86479C9.24779 6.86479 9.3707 6.87604 9.49025 6.89767L13.2855 3.05963C13.2719 2.96231 13.2649 2.86301 13.2649 2.7623C13.2649 1.63484 14.1495 0.683594 15.2857 0.683594C16.4219 0.683594 17.3065 1.63484 17.3065 2.7623C17.3065 2.86922 17.2986 2.97453 17.2833 3.07758L21.0735 6.89447C21.1856 6.87494 21.3007 6.86479 21.4178 6.86479C22.5433 6.86479 23.4386 7.79102 23.4386 8.91228C23.4386 10.0335 22.5433 10.9598 21.4178 10.9598C20.2923 10.9598 19.397 10.0335 19.397 8.91228C19.397 8.70541 19.4275 8.505 19.4843 8.31579L15.9274 4.73388ZM15.9751 4.51319C15.7624 4.60237 15.5295 4.65168 15.2857 4.65168C15.0365 4.65168 14.7987 4.60015 14.5822 4.50718L10.8679 8.26336C10.9435 8.46562 10.9847 8.6844 10.9847 8.91228C10.9847 9.04143 10.9715 9.16777 10.9462 9.28992L14.8096 13.2364C14.9616 13.1949 15.1213 13.1729 15.2857 13.1729C16.3033 13.1729 17.1172 14.0109 17.1172 15.031C17.1172 15.2021 17.0943 15.3683 17.0513 15.5263L20.8325 19.3886C21.0164 19.3257 21.2134 19.2916 21.4178 19.2916C22.4354 19.2916 23.2493 20.1296 23.2493 21.1497C23.2493 22.1699 22.4354 23.0079 21.4178 23.0079C21.2483 23.0079 21.0839 22.9845 20.9277 22.9405L17.0719 26.8563C17.1016 26.9891 17.1172 27.1271 17.1172 27.2685C17.1172 28.2886 16.3033 29.1266 15.2857 29.1266C14.2682 29.1266 13.4543 28.2886 13.4543 27.2685C13.4543 27.1332 13.4686 27.001 13.4958 26.8735L9.63522 22.9365C9.47209 22.983 9.30004 23.0079 9.12259 23.0079C8.09506 23.0079 7.26047 22.1769 7.26047 21.1497C7.26047 20.1226 8.09506 19.2916 9.12259 19.2916C10.1501 19.2916 10.9847 20.1226 10.9847 21.1497C10.9847 21.3487 10.9533 21.5408 10.8949 21.721L14.6322 25.5322C14.8353 25.4535 15.0557 25.4103 15.2857 25.4103C15.5101 25.4103 15.7255 25.4514 15.9245 25.5266L19.674 21.7189C19.617 21.5392 19.5863 21.3478 19.5863 21.1497C19.5863 20.9874 19.607 20.8294 19.6458 20.6787L15.8484 16.7997C15.6709 16.8578 15.4817 16.8892 15.2857 16.8892C14.2682 16.8892 13.4543 16.0511 13.4543 15.031C13.4543 14.8279 13.4865 14.6318 13.5463 14.4481L9.81566 10.6374C9.60117 10.7232 9.36712 10.7704 9.12259 10.7704C8.09506 10.7704 7.26047 9.9394 7.26047 8.91228C7.26047 7.88515 8.09506 7.05412 9.12259 7.05412C9.27027 7.05412 9.41427 7.07134 9.55252 7.10397L13.4879 3.12424C13.4658 3.00686 13.4543 2.88583 13.4543 2.7623C13.4543 1.73204 14.2613 0.872925 15.2857 0.872925C16.3102 0.872925 17.1172 1.73204 17.1172 2.7623C17.1172 2.89196 17.1045 3.01887 17.0802 3.14168L21.011 7.1002C21.142 7.07002 21.2782 7.05412 21.4178 7.05412C22.4354 7.05412 23.2493 7.89217 23.2493 8.91228C23.2493 9.93238 22.4354 10.7704 21.4178 10.7704C20.4003 10.7704 19.5863 9.93238 19.5863 8.91228C19.5863 8.68514 19.6267 8.46692 19.7006 8.26499L15.9751 4.51319ZM29.6324 15.031C29.6324 16.1523 28.7371 17.0785 27.6116 17.0785C26.4861 17.0785 25.5908 16.1523 25.5908 15.031C25.5908 13.9098 26.4861 12.9835 27.6116 12.9835C28.7371 12.9835 29.6324 13.9098 29.6324 15.031ZM5.10291 15.031C5.10291 16.1632 4.18305 17.0785 3.05145 17.0785C1.91986 17.0785 1 16.1632 1 15.031C1 13.8988 1.91986 12.9835 3.05145 12.9835C4.18305 12.9835 5.10291 13.8988 5.10291 15.031ZM27.6116 16.8892C28.6291 16.8892 29.4431 16.0511 29.4431 15.031C29.4431 14.0109 28.6291 13.1729 27.6116 13.1729C26.594 13.1729 25.7801 14.0109 25.7801 15.031C25.7801 16.0511 26.594 16.8892 27.6116 16.8892ZM4.91358 15.031C4.91358 16.0581 4.07898 16.8892 3.05145 16.8892C2.02393 16.8892 1.18933 16.0581 1.18933 15.031C1.18933 14.0039 2.02393 13.1729 3.05145 13.1729C4.07898 13.1729 4.91358 14.0039 4.91358 15.031Z"/>
</mask>
<path fillRule="evenodd" clipRule="evenodd" d="M15.9274 4.73388C15.7257 4.8033 15.5098 4.84101 15.2857 4.84101C15.0561 4.84101 14.8352 4.80144 14.6294 4.72877L11.0847 8.31335C11.1428 8.50316 11.174 8.70439 11.174 8.91228C11.174 9.01917 11.1658 9.12442 11.1498 9.22733L14.8697 13.0271C15.0042 12.9985 15.1434 12.9835 15.2857 12.9835C16.4112 12.9835 17.3065 13.9098 17.3065 15.031C17.3065 15.1809 17.2905 15.3274 17.2601 15.4689L20.8871 19.1737C21.0565 19.1271 21.2345 19.1023 21.4178 19.1023C22.5433 19.1023 23.4386 20.0285 23.4386 21.1497C23.4386 22.271 22.5433 23.1972 21.4178 23.1972C21.2702 23.1972 21.1259 23.1811 20.9867 23.1504L17.2769 26.9179C17.2964 27.0321 17.3065 27.1493 17.3065 27.2685C17.3065 28.3897 16.4112 29.316 15.2857 29.316C14.1602 29.316 13.2649 28.3897 13.2649 27.2685C13.2649 27.1554 13.274 27.0442 13.2916 26.9356L9.57633 23.1469C9.43004 23.1799 9.27811 23.1972 9.12259 23.1972C7.991 23.1972 7.07114 22.2819 7.07114 21.1497C7.07114 20.0176 7.991 19.1023 9.12259 19.1023C10.2542 19.1023 11.174 20.0176 11.174 21.1497C11.174 21.3282 11.151 21.5019 11.1077 21.6676L14.6831 25.3137C14.8737 25.2535 15.0762 25.221 15.2857 25.221C15.4896 25.221 15.6869 25.2518 15.8731 25.309L19.4616 21.6647C19.4194 21.4998 19.397 21.3271 19.397 21.1497C19.397 21.0088 19.4111 20.8708 19.4382 20.7372L15.7926 17.0134C15.6304 17.0559 15.4604 17.0785 15.2857 17.0785C14.1602 17.0785 13.2649 16.1523 13.2649 15.031C13.2649 14.8484 13.2887 14.6707 13.3333 14.5013L9.7657 10.857C9.56303 10.9237 9.34668 10.9598 9.12259 10.9598C7.991 10.9598 7.07114 10.0445 7.07114 8.91228C7.07114 7.78008 7.991 6.86479 9.12259 6.86479C9.24779 6.86479 9.3707 6.87604 9.49025 6.89767L13.2855 3.05963C13.2719 2.96231 13.2649 2.86301 13.2649 2.7623C13.2649 1.63484 14.1495 0.683594 15.2857 0.683594C16.4219 0.683594 17.3065 1.63484 17.3065 2.7623C17.3065 2.86922 17.2986 2.97453 17.2833 3.07758L21.0735 6.89447C21.1856 6.87494 21.3007 6.86479 21.4178 6.86479C22.5433 6.86479 23.4386 7.79102 23.4386 8.91228C23.4386 10.0335 22.5433 10.9598 21.4178 10.9598C20.2923 10.9598 19.397 10.0335 19.397 8.91228C19.397 8.70541 19.4275 8.505 19.4843 8.31579L15.9274 4.73388ZM15.9751 4.51319C15.7624 4.60237 15.5295 4.65168 15.2857 4.65168C15.0365 4.65168 14.7987 4.60015 14.5822 4.50718L10.8679 8.26336C10.9435 8.46562 10.9847 8.6844 10.9847 8.91228C10.9847 9.04143 10.9715 9.16777 10.9462 9.28992L14.8096 13.2364C14.9616 13.1949 15.1213 13.1729 15.2857 13.1729C16.3033 13.1729 17.1172 14.0109 17.1172 15.031C17.1172 15.2021 17.0943 15.3683 17.0513 15.5263L20.8325 19.3886C21.0164 19.3257 21.2134 19.2916 21.4178 19.2916C22.4354 19.2916 23.2493 20.1296 23.2493 21.1497C23.2493 22.1699 22.4354 23.0079 21.4178 23.0079C21.2483 23.0079 21.0839 22.9845 20.9277 22.9405L17.0719 26.8563C17.1016 26.9891 17.1172 27.1271 17.1172 27.2685C17.1172 28.2886 16.3033 29.1266 15.2857 29.1266C14.2682 29.1266 13.4543 28.2886 13.4543 27.2685C13.4543 27.1332 13.4686 27.001 13.4958 26.8735L9.63522 22.9365C9.47209 22.983 9.30004 23.0079 9.12259 23.0079C8.09506 23.0079 7.26047 22.1769 7.26047 21.1497C7.26047 20.1226 8.09506 19.2916 9.12259 19.2916C10.1501 19.2916 10.9847 20.1226 10.9847 21.1497C10.9847 21.3487 10.9533 21.5408 10.8949 21.721L14.6322 25.5322C14.8353 25.4535 15.0557 25.4103 15.2857 25.4103C15.5101 25.4103 15.7255 25.4514 15.9245 25.5266L19.674 21.7189C19.617 21.5392 19.5863 21.3478 19.5863 21.1497C19.5863 20.9874 19.607 20.8294 19.6458 20.6787L15.8484 16.7997C15.6709 16.8578 15.4817 16.8892 15.2857 16.8892C14.2682 16.8892 13.4543 16.0511 13.4543 15.031C13.4543 14.8279 13.4865 14.6318 13.5463 14.4481L9.81566 10.6374C9.60117 10.7232 9.36712 10.7704 9.12259 10.7704C8.09506 10.7704 7.26047 9.9394 7.26047 8.91228C7.26047 7.88515 8.09506 7.05412 9.12259 7.05412C9.27027 7.05412 9.41427 7.07134 9.55252 7.10397L13.4879 3.12424C13.4658 3.00686 13.4543 2.88583 13.4543 2.7623C13.4543 1.73204 14.2613 0.872925 15.2857 0.872925C16.3102 0.872925 17.1172 1.73204 17.1172 2.7623C17.1172 2.89196 17.1045 3.01887 17.0802 3.14168L21.011 7.1002C21.142 7.07002 21.2782 7.05412 21.4178 7.05412C22.4354 7.05412 23.2493 7.89217 23.2493 8.91228C23.2493 9.93238 22.4354 10.7704 21.4178 10.7704C20.4003 10.7704 19.5863 9.93238 19.5863 8.91228C19.5863 8.68514 19.6267 8.46692 19.7006 8.26499L15.9751 4.51319ZM29.6324 15.031C29.6324 16.1523 28.7371 17.0785 27.6116 17.0785C26.4861 17.0785 25.5908 16.1523 25.5908 15.031C25.5908 13.9098 26.4861 12.9835 27.6116 12.9835C28.7371 12.9835 29.6324 13.9098 29.6324 15.031ZM5.10291 15.031C5.10291 16.1632 4.18305 17.0785 3.05145 17.0785C1.91986 17.0785 1 16.1632 1 15.031C1 13.8988 1.91986 12.9835 3.05145 12.9835C4.18305 12.9835 5.10291 13.8988 5.10291 15.031ZM27.6116 16.8892C28.6291 16.8892 29.4431 16.0511 29.4431 15.031C29.4431 14.0109 28.6291 13.1729 27.6116 13.1729C26.594 13.1729 25.7801 14.0109 25.7801 15.031C25.7801 16.0511 26.594 16.8892 27.6116 16.8892ZM4.91358 15.031C4.91358 16.0581 4.07898 16.8892 3.05145 16.8892C2.02393 16.8892 1.18933 16.0581 1.18933 15.031C1.18933 14.0039 2.02393 13.1729 3.05145 13.1729C4.07898 13.1729 4.91358 14.0039 4.91358 15.031Z" fill="#00145C"/>
<path fillRule="evenodd" clipRule="evenodd" d="M15.9274 4.73388C15.7257 4.8033 15.5098 4.84101 15.2857 4.84101C15.0561 4.84101 14.8352 4.80144 14.6294 4.72877L11.0847 8.31335C11.1428 8.50316 11.174 8.70439 11.174 8.91228C11.174 9.01917 11.1658 9.12442 11.1498 9.22733L14.8697 13.0271C15.0042 12.9985 15.1434 12.9835 15.2857 12.9835C16.4112 12.9835 17.3065 13.9098 17.3065 15.031C17.3065 15.1809 17.2905 15.3274 17.2601 15.4689L20.8871 19.1737C21.0565 19.1271 21.2345 19.1023 21.4178 19.1023C22.5433 19.1023 23.4386 20.0285 23.4386 21.1497C23.4386 22.271 22.5433 23.1972 21.4178 23.1972C21.2702 23.1972 21.1259 23.1811 20.9867 23.1504L17.2769 26.9179C17.2964 27.0321 17.3065 27.1493 17.3065 27.2685C17.3065 28.3897 16.4112 29.316 15.2857 29.316C14.1602 29.316 13.2649 28.3897 13.2649 27.2685C13.2649 27.1554 13.274 27.0442 13.2916 26.9356L9.57633 23.1469C9.43004 23.1799 9.27811 23.1972 9.12259 23.1972C7.991 23.1972 7.07114 22.2819 7.07114 21.1497C7.07114 20.0176 7.991 19.1023 9.12259 19.1023C10.2542 19.1023 11.174 20.0176 11.174 21.1497C11.174 21.3282 11.151 21.5019 11.1077 21.6676L14.6831 25.3137C14.8737 25.2535 15.0762 25.221 15.2857 25.221C15.4896 25.221 15.6869 25.2518 15.8731 25.309L19.4616 21.6647C19.4194 21.4998 19.397 21.3271 19.397 21.1497C19.397 21.0088 19.4111 20.8708 19.4382 20.7372L15.7926 17.0134C15.6304 17.0559 15.4604 17.0785 15.2857 17.0785C14.1602 17.0785 13.2649 16.1523 13.2649 15.031C13.2649 14.8484 13.2887 14.6707 13.3333 14.5013L9.7657 10.857C9.56303 10.9237 9.34668 10.9598 9.12259 10.9598C7.991 10.9598 7.07114 10.0445 7.07114 8.91228C7.07114 7.78008 7.991 6.86479 9.12259 6.86479C9.24779 6.86479 9.3707 6.87604 9.49025 6.89767L13.2855 3.05963C13.2719 2.96231 13.2649 2.86301 13.2649 2.7623C13.2649 1.63484 14.1495 0.683594 15.2857 0.683594C16.4219 0.683594 17.3065 1.63484 17.3065 2.7623C17.3065 2.86922 17.2986 2.97453 17.2833 3.07758L21.0735 6.89447C21.1856 6.87494 21.3007 6.86479 21.4178 6.86479C22.5433 6.86479 23.4386 7.79102 23.4386 8.91228C23.4386 10.0335 22.5433 10.9598 21.4178 10.9598C20.2923 10.9598 19.397 10.0335 19.397 8.91228C19.397 8.70541 19.4275 8.505 19.4843 8.31579L15.9274 4.73388ZM15.9751 4.51319C15.7624 4.60237 15.5295 4.65168 15.2857 4.65168C15.0365 4.65168 14.7987 4.60015 14.5822 4.50718L10.8679 8.26336C10.9435 8.46562 10.9847 8.6844 10.9847 8.91228C10.9847 9.04143 10.9715 9.16777 10.9462 9.28992L14.8096 13.2364C14.9616 13.1949 15.1213 13.1729 15.2857 13.1729C16.3033 13.1729 17.1172 14.0109 17.1172 15.031C17.1172 15.2021 17.0943 15.3683 17.0513 15.5263L20.8325 19.3886C21.0164 19.3257 21.2134 19.2916 21.4178 19.2916C22.4354 19.2916 23.2493 20.1296 23.2493 21.1497C23.2493 22.1699 22.4354 23.0079 21.4178 23.0079C21.2483 23.0079 21.0839 22.9845 20.9277 22.9405L17.0719 26.8563C17.1016 26.9891 17.1172 27.1271 17.1172 27.2685C17.1172 28.2886 16.3033 29.1266 15.2857 29.1266C14.2682 29.1266 13.4543 28.2886 13.4543 27.2685C13.4543 27.1332 13.4686 27.001 13.4958 26.8735L9.63522 22.9365C9.47209 22.983 9.30004 23.0079 9.12259 23.0079C8.09506 23.0079 7.26047 22.1769 7.26047 21.1497C7.26047 20.1226 8.09506 19.2916 9.12259 19.2916C10.1501 19.2916 10.9847 20.1226 10.9847 21.1497C10.9847 21.3487 10.9533 21.5408 10.8949 21.721L14.6322 25.5322C14.8353 25.4535 15.0557 25.4103 15.2857 25.4103C15.5101 25.4103 15.7255 25.4514 15.9245 25.5266L19.674 21.7189C19.617 21.5392 19.5863 21.3478 19.5863 21.1497C19.5863 20.9874 19.607 20.8294 19.6458 20.6787L15.8484 16.7997C15.6709 16.8578 15.4817 16.8892 15.2857 16.8892C14.2682 16.8892 13.4543 16.0511 13.4543 15.031C13.4543 14.8279 13.4865 14.6318 13.5463 14.4481L9.81566 10.6374C9.60117 10.7232 9.36712 10.7704 9.12259 10.7704C8.09506 10.7704 7.26047 9.9394 7.26047 8.91228C7.26047 7.88515 8.09506 7.05412 9.12259 7.05412C9.27027 7.05412 9.41427 7.07134 9.55252 7.10397L13.4879 3.12424C13.4658 3.00686 13.4543 2.88583 13.4543 2.7623C13.4543 1.73204 14.2613 0.872925 15.2857 0.872925C16.3102 0.872925 17.1172 1.73204 17.1172 2.7623C17.1172 2.89196 17.1045 3.01887 17.0802 3.14168L21.011 7.1002C21.142 7.07002 21.2782 7.05412 21.4178 7.05412C22.4354 7.05412 23.2493 7.89217 23.2493 8.91228C23.2493 9.93238 22.4354 10.7704 21.4178 10.7704C20.4003 10.7704 19.5863 9.93238 19.5863 8.91228C19.5863 8.68514 19.6267 8.46692 19.7006 8.26499L15.9751 4.51319ZM29.6324 15.031C29.6324 16.1523 28.7371 17.0785 27.6116 17.0785C26.4861 17.0785 25.5908 16.1523 25.5908 15.031C25.5908 13.9098 26.4861 12.9835 27.6116 12.9835C28.7371 12.9835 29.6324 13.9098 29.6324 15.031ZM5.10291 15.031C5.10291 16.1632 4.18305 17.0785 3.05145 17.0785C1.91986 17.0785 1 16.1632 1 15.031C1 13.8988 1.91986 12.9835 3.05145 12.9835C4.18305 12.9835 5.10291 13.8988 5.10291 15.031ZM27.6116 16.8892C28.6291 16.8892 29.4431 16.0511 29.4431 15.031C29.4431 14.0109 28.6291 13.1729 27.6116 13.1729C26.594 13.1729 25.7801 14.0109 25.7801 15.031C25.7801 16.0511 26.594 16.8892 27.6116 16.8892ZM4.91358 15.031C4.91358 16.0581 4.07898 16.8892 3.05145 16.8892C2.02393 16.8892 1.18933 16.0581 1.18933 15.031C1.18933 14.0039 2.02393 13.1729 3.05145 13.1729C4.07898 13.1729 4.91358 14.0039 4.91358 15.031Z" stroke="#00145C" strokeLinecap="round" strokeLinejoin="round" mask="url(#path-2-outside-1_205_4454)"/>
<path d="M178.48 22.5469V7.19043H180V22.5469H178.48Z" fill="#00145C"/>
<path d="M170.838 22.7903C170.149 22.7903 169.534 22.6618 168.994 22.4049C168.454 22.1344 168.029 21.7693 167.718 21.3094C167.407 20.8496 167.252 20.3222 167.252 19.7271C167.252 19.1591 167.374 18.6452 167.617 18.1854C167.86 17.7121 168.238 17.3131 168.751 16.9885C169.264 16.664 169.919 16.434 170.716 16.2988L174.971 15.5888V16.9682L171.081 17.6174C170.298 17.7526 169.73 18.0028 169.379 18.368C169.041 18.7331 168.873 19.1659 168.873 19.6663C168.873 20.1531 169.062 20.5656 169.44 20.9037C169.832 21.2418 170.331 21.4109 170.939 21.4109C171.682 21.4109 172.33 21.2553 172.884 20.9443C173.438 20.6197 173.87 20.187 174.181 19.646C174.491 19.105 174.646 18.5032 174.646 17.8405V15.0816C174.646 14.4325 174.41 13.9051 173.937 13.4993C173.465 13.0936 172.85 12.8908 172.094 12.8908C171.432 12.8908 170.851 13.0598 170.352 13.3979C169.852 13.7225 169.48 14.1485 169.237 14.6759L167.86 13.9253C168.062 13.4655 168.38 13.0463 168.812 12.6676C169.258 12.2889 169.764 11.9914 170.331 11.775C170.899 11.5451 171.486 11.4302 172.094 11.4302C172.891 11.4302 173.593 11.5857 174.201 11.8968C174.822 12.2078 175.302 12.6406 175.639 13.1951C175.99 13.736 176.166 14.3649 176.166 15.0816V22.5469H174.646V20.3763L174.869 20.5994C174.68 21.0052 174.383 21.3771 173.978 21.7152C173.586 22.0397 173.12 22.3035 172.58 22.5063C172.053 22.6957 171.473 22.7903 170.838 22.7903Z" fill="#00145C"/>
<path d="M160.484 22.7903C159.552 22.7903 158.708 22.5807 157.952 22.1615C157.209 21.7287 156.649 21.1201 156.27 20.3357L156.514 20.1126V22.5469H154.994V7.19043H156.514V14.1079L156.27 13.6819C156.703 12.9922 157.277 12.4445 157.992 12.0388C158.722 11.6331 159.552 11.4302 160.484 11.4302C161.511 11.4302 162.422 11.6804 163.219 12.1808C164.03 12.6676 164.664 13.3371 165.124 14.1891C165.596 15.0411 165.833 16.0148 165.833 17.1103C165.833 18.1922 165.596 19.1659 165.124 20.0314C164.664 20.8835 164.03 21.5597 163.219 22.06C162.422 22.5469 161.511 22.7903 160.484 22.7903ZM160.403 21.2689C161.133 21.2689 161.781 21.0863 162.348 20.7212C162.929 20.356 163.381 19.8624 163.706 19.2403C164.043 18.6047 164.212 17.8947 164.212 17.1103C164.212 16.3124 164.043 15.6023 163.706 14.9802C163.381 14.3581 162.929 13.8645 162.348 13.4994C161.781 13.1342 161.133 12.9516 160.403 12.9516C159.674 12.9516 159.012 13.1342 158.418 13.4994C157.837 13.8645 157.371 14.3649 157.02 15.0005C156.682 15.6226 156.514 16.3259 156.514 17.1103C156.514 17.8947 156.682 18.6047 157.02 19.2403C157.371 19.8624 157.837 20.356 158.418 20.7212C159.012 21.0863 159.674 21.2689 160.403 21.2689Z" fill="#00145C"/>
<path d="M147.613 22.7903C146.586 22.7903 145.654 22.5469 144.817 22.06C143.98 21.5596 143.311 20.8834 142.811 20.0314C142.325 19.1659 142.082 18.1854 142.082 17.09C142.082 16.008 142.325 15.0411 142.811 14.1891C143.298 13.3371 143.953 12.6676 144.776 12.1808C145.614 11.6804 146.559 11.4302 147.613 11.4302C148.666 11.4302 149.605 11.6736 150.429 12.1605C151.266 12.6473 151.921 13.3168 152.394 14.1688C152.88 15.0208 153.123 15.9945 153.123 17.09C153.123 18.1989 152.873 19.1862 152.374 20.0517C151.874 20.9037 151.205 21.5732 150.368 22.06C149.544 22.5469 148.626 22.7903 147.613 22.7903ZM147.613 21.2689C148.342 21.2689 148.997 21.0863 149.578 20.7211C150.172 20.356 150.638 19.8556 150.976 19.22C151.327 18.5844 151.502 17.8744 151.502 17.09C151.502 16.3056 151.327 15.6023 150.976 14.9802C150.638 14.3581 150.172 13.8645 149.578 13.4993C148.997 13.1342 148.342 12.9516 147.613 12.9516C146.883 12.9516 146.222 13.1342 145.627 13.4993C145.047 13.8645 144.581 14.3581 144.229 14.9802C143.878 15.6023 143.703 16.3056 143.703 17.09C143.703 17.8744 143.878 18.5844 144.229 19.22C144.581 19.8556 145.047 20.356 145.627 20.7211C146.222 21.0863 146.883 21.2689 147.613 21.2689Z" fill="#00145C"/>
<path d="M138.712 22.5469V7.19043H140.231V22.5469H138.712Z" fill="#00145C"/>
<path d="M129.993 22.7903C128.926 22.7903 127.947 22.601 127.055 22.2223C126.164 21.8301 125.387 21.2892 124.726 20.5995C124.077 19.8962 123.571 19.0712 123.206 18.1246C122.842 17.1779 122.659 16.1365 122.659 15.0005C122.659 13.8645 122.842 12.8232 123.206 11.8765C123.571 10.9298 124.077 10.1048 124.726 9.4016C125.387 8.69835 126.164 8.15739 127.055 7.77872C127.947 7.38653 128.926 7.19043 129.993 7.19043C131.019 7.19043 131.938 7.373 132.748 7.73815C133.572 8.1033 134.261 8.57664 134.815 9.15817C135.382 9.72618 135.787 10.328 136.03 10.9636L134.571 11.6736C134.193 10.754 133.613 10.0305 132.829 9.50303C132.046 8.97559 131.1 8.71188 129.993 8.71188C128.885 8.71188 127.9 8.97559 127.035 9.50303C126.171 10.0305 125.495 10.7675 125.009 11.7142C124.523 12.6474 124.28 13.7428 124.28 15.0005C124.28 16.2447 124.523 17.3402 125.009 18.2869C125.495 19.2335 126.171 19.9706 127.035 20.498C127.9 21.0119 128.885 21.2689 129.993 21.2689C130.979 21.2689 131.864 21.0525 132.647 20.6197C133.444 20.187 134.072 19.5987 134.531 18.8549C134.99 18.0975 135.22 17.232 135.22 16.2583V15.4265L135.949 16.1568H129.993V14.7368H136.84V15.9945C136.84 16.9818 136.665 17.8947 136.314 18.7331C135.963 19.5581 135.476 20.2749 134.855 20.8835C134.234 21.492 133.504 21.9654 132.667 22.3035C131.843 22.6281 130.952 22.7903 129.993 22.7903Z" fill="#00145C"/>
<path d="M112.331 22.7903C111.277 22.7903 110.332 22.5401 109.494 22.0398C108.671 21.5258 108.016 20.8361 107.529 19.9706C107.057 19.1051 106.82 18.1313 106.82 17.0494C106.82 15.9675 107.063 14.9938 107.55 14.1282C108.036 13.2627 108.691 12.5797 109.515 12.0793C110.339 11.579 111.271 11.3288 112.31 11.3288C113.188 11.3288 113.965 11.5046 114.64 11.8562C115.316 12.2078 115.849 12.6947 116.241 13.3168L115.896 13.8442V7.19043H118.165V22.5469H115.998V20.3155L116.261 20.7415C115.883 21.4041 115.343 21.9113 114.64 22.2629C113.938 22.6145 113.168 22.7903 112.331 22.7903ZM112.554 20.6603C113.188 20.6603 113.756 20.5048 114.255 20.1937C114.769 19.8827 115.167 19.4567 115.451 18.9157C115.748 18.3612 115.896 17.7391 115.896 17.0494C115.896 16.3597 115.748 15.7443 115.451 15.2034C115.167 14.6624 114.769 14.2364 114.255 13.9254C113.756 13.6143 113.188 13.4588 112.554 13.4588C111.919 13.4588 111.345 13.6143 110.832 13.9254C110.318 14.2364 109.92 14.6624 109.636 15.2034C109.353 15.7443 109.211 16.3597 109.211 17.0494C109.211 17.7391 109.353 18.3612 109.636 18.9157C109.92 19.4567 110.312 19.8827 110.811 20.1937C111.325 20.5048 111.905 20.6603 112.554 20.6603Z" fill="#00145C"/>
<path d="M100.797 22.7902C99.7026 22.7902 98.7301 22.54 97.8793 22.0396C97.0419 21.5257 96.3868 20.836 95.9141 19.9704C95.4414 19.0914 95.2051 18.1109 95.2051 17.029C95.2051 15.92 95.4414 14.9395 95.9141 14.0875C96.4004 13.2355 97.0486 12.5661 97.859 12.0792C98.6694 11.5788 99.5878 11.3286 100.614 11.3286C101.438 11.3286 102.174 11.4706 102.822 11.7546C103.471 12.0386 104.018 12.4308 104.463 12.9312C104.909 13.4181 105.247 13.9793 105.476 14.6149C105.719 15.2506 105.841 15.9268 105.841 16.6435C105.841 16.8193 105.834 17.0019 105.821 17.1913C105.807 17.3806 105.78 17.5564 105.74 17.7187H97.0081V15.893H104.443L103.349 16.7247C103.484 16.062 103.437 15.4737 103.207 14.9598C102.991 14.4324 102.654 14.0199 102.194 13.7224C101.749 13.4113 101.222 13.2558 100.614 13.2558C100.006 13.2558 99.4662 13.4113 98.9935 13.7224C98.5208 14.0199 98.1561 14.4527 97.8995 15.0207C97.6429 15.5751 97.5416 16.2513 97.5956 17.0493C97.5281 17.7931 97.6294 18.4422 97.8995 18.9967C98.1831 19.5512 98.5748 19.984 99.0745 20.295C99.5878 20.6061 100.169 20.7616 100.817 20.7616C101.479 20.7616 102.039 20.6128 102.498 20.3153C102.971 20.0178 103.342 19.6323 103.613 19.159L105.476 20.0719C105.26 20.5858 104.923 21.0524 104.463 21.4716C104.018 21.8773 103.478 22.2019 102.843 22.4453C102.221 22.6752 101.539 22.7902 100.797 22.7902Z" fill="#00145C"/>
<path d="M93.1887 22.6685C92.0406 22.6685 91.1493 22.3439 90.5145 21.6948C89.8797 21.0456 89.5623 20.1328 89.5623 18.9562V13.6413H87.6377V11.5721H87.9416C88.4548 11.5721 88.8532 11.4233 89.1369 11.1258C89.4205 10.8283 89.5623 10.4226 89.5623 9.90865V9.05664H91.8516V11.5721H94.3434V13.6413H91.8516V18.8548C91.8516 19.2334 91.9123 19.558 92.0339 19.8285C92.1555 20.0854 92.3513 20.2883 92.6214 20.4371C92.8915 20.5723 93.2427 20.6399 93.6749 20.6399C93.7829 20.6399 93.9045 20.6332 94.0395 20.6196C94.1746 20.6061 94.3029 20.5926 94.4245 20.5791V22.5468C94.2354 22.5739 94.026 22.6009 93.7964 22.628C93.5668 22.655 93.3642 22.6685 93.1887 22.6685Z" fill="#00145C"/>
<path d="M82.1806 22.7902C81.0866 22.7902 80.1142 22.54 79.2633 22.0396C78.4259 21.5257 77.7574 20.836 77.2576 19.9704C76.7714 19.1049 76.5283 18.1244 76.5283 17.029C76.5283 15.9471 76.7714 14.9733 77.2576 14.1078C77.7439 13.2423 78.4124 12.5661 79.2633 12.0792C80.1142 11.5788 81.0866 11.3286 82.1806 11.3286C82.9234 11.3286 83.619 11.4639 84.2673 11.7343C84.9155 11.9913 85.476 12.3497 85.9488 12.8095C86.435 13.2693 86.7929 13.8035 87.0225 14.4121L85.0168 15.3452C84.7872 14.7772 84.4158 14.3242 83.9026 13.9861C83.4029 13.6345 82.8289 13.4586 82.1806 13.4586C81.5593 13.4586 80.9988 13.6142 80.4991 13.9252C80.0129 14.2227 79.6279 14.6488 79.3443 15.2032C79.0607 15.7442 78.9189 16.3595 78.9189 17.0493C78.9189 17.739 79.0607 18.3611 79.3443 18.9156C79.6279 19.4565 80.0129 19.8825 80.4991 20.1936C80.9988 20.5046 81.5593 20.6602 82.1806 20.6602C82.8424 20.6602 83.4164 20.4911 83.9026 20.153C84.4023 19.8014 84.7737 19.3348 85.0168 18.7533L87.0225 19.7067C86.8064 20.2882 86.4552 20.8157 85.969 21.289C85.4963 21.7488 84.9358 22.114 84.2875 22.3845C83.6392 22.6549 82.9369 22.7902 82.1806 22.7902Z" fill="#00145C"/>
<path d="M70.5065 22.7902C69.4125 22.7902 68.4401 22.54 67.5892 22.0396C66.7519 21.5257 66.0968 20.836 65.6241 19.9704C65.1514 19.0914 64.915 18.1109 64.915 17.029C64.915 15.92 65.1514 14.9395 65.6241 14.0875C66.1103 13.2355 66.7586 12.5661 67.569 12.0792C68.3793 11.5788 69.2977 11.3286 70.3242 11.3286C71.1481 11.3286 71.8841 11.4706 72.5324 11.7546C73.1807 12.0386 73.7277 12.4308 74.1734 12.9312C74.6191 13.4181 74.9567 13.9793 75.1864 14.6149C75.4295 15.2506 75.551 15.9268 75.551 16.6435C75.551 16.8193 75.5443 17.0019 75.5308 17.1913C75.5172 17.3806 75.4902 17.5564 75.4497 17.7187H66.7181V15.893H74.1531L73.0592 16.7247C73.1942 16.062 73.1469 15.4737 72.9173 14.9598C72.7012 14.4324 72.3636 14.0199 71.9044 13.7224C71.4587 13.4113 70.932 13.2558 70.3242 13.2558C69.7164 13.2558 69.1762 13.4113 68.7035 13.7224C68.2308 14.0199 67.8661 14.4527 67.6095 15.0207C67.3529 15.5751 67.2516 16.2513 67.3056 17.0493C67.2381 17.7931 67.3394 18.4422 67.6095 18.9967C67.8931 19.5512 68.2848 19.984 68.7845 20.295C69.2977 20.6061 69.8785 20.7616 70.5268 20.7616C71.1886 20.7616 71.7491 20.6128 72.2083 20.3153C72.681 20.0178 73.0524 19.6323 73.3225 19.159L75.1864 20.0719C74.9703 20.5858 74.6326 21.0524 74.1734 21.4716C73.7277 21.8773 73.1875 22.2019 72.5527 22.4453C71.9314 22.6752 71.2494 22.7902 70.5065 22.7902Z" fill="#00145C"/>
<path d="M61.2061 22.5469V7.19043H63.4953V22.5469H61.2061Z" fill="#00145C"/>
<path d="M54.7341 22.7902C53.6401 22.7902 52.6676 22.54 51.8168 22.0396C50.9794 21.5257 50.3244 20.836 49.8516 19.9704C49.3789 19.0914 49.1426 18.1109 49.1426 17.029C49.1426 15.92 49.3789 14.9395 49.8516 14.0875C50.3379 13.2355 50.9861 12.5661 51.7965 12.0792C52.6069 11.5788 53.5253 11.3286 54.5517 11.3286C55.3756 11.3286 56.1117 11.4706 56.76 11.7546C57.4082 12.0386 57.9552 12.4308 58.4009 12.9312C58.8466 13.4181 59.1843 13.9793 59.4139 14.6149C59.657 15.2506 59.7786 15.9268 59.7786 16.6435C59.7786 16.8193 59.7718 17.0019 59.7583 17.1913C59.7448 17.3806 59.7178 17.5564 59.6773 17.7187H50.9456V15.893H58.3807L57.2867 16.7247C57.4218 16.062 57.3745 15.4737 57.1449 14.9598C56.9288 14.4324 56.5911 14.0199 56.1319 13.7224C55.6862 13.4113 55.1595 13.2558 54.5517 13.2558C53.944 13.2558 53.4037 13.4113 52.931 13.7224C52.4583 14.0199 52.0936 14.4527 51.837 15.0207C51.5804 15.5751 51.4791 16.2513 51.5331 17.0493C51.4656 17.7931 51.5669 18.4422 51.837 18.9967C52.1207 19.5512 52.5123 19.984 53.012 20.295C53.5253 20.6061 54.106 20.7616 54.7543 20.7616C55.4161 20.7616 55.9766 20.6128 56.4358 20.3153C56.9085 20.0178 57.2799 19.6323 57.5501 19.159L59.4139 20.0719C59.1978 20.5858 58.8601 21.0524 58.4009 21.4716C57.9552 21.8773 57.415 22.2019 56.7802 22.4453C56.1589 22.6752 55.4769 22.7902 54.7341 22.7902Z" fill="#00145C"/>
<path d="M42.794 22.7903C41.8486 22.7903 40.9707 22.6145 40.1604 22.2629C39.35 21.8978 38.6612 21.4041 38.0939 20.782C37.5267 20.1599 37.108 19.4432 36.8379 18.6317L38.8638 17.7797C39.2285 18.7129 39.7619 19.4296 40.4643 19.93C41.1666 20.4304 41.9769 20.6806 42.8953 20.6806C43.4356 20.6806 43.9083 20.5995 44.3135 20.4372C44.7186 20.2614 45.0293 20.0179 45.2454 19.7069C45.475 19.3958 45.5898 19.0374 45.5898 18.6317C45.5898 18.0772 45.4345 17.6377 45.1238 17.3131C44.8132 16.9886 44.354 16.7316 43.7462 16.5423L40.9099 15.6497C39.7754 15.2981 38.9111 14.7639 38.3168 14.0471C37.7225 13.3168 37.4254 12.4648 37.4254 11.4911C37.4254 10.639 37.6347 9.89523 38.0534 9.2596C38.4721 8.61045 39.0461 8.1033 39.7754 7.73815C40.5183 7.373 41.3624 7.19043 42.3078 7.19043C43.2127 7.19043 44.0366 7.35272 44.7794 7.67729C45.5222 7.98834 46.157 8.42111 46.6838 8.97559C47.224 9.53008 47.6157 10.1725 47.8588 10.9028L45.8734 11.7751C45.5763 10.9771 45.1103 10.3618 44.4755 9.92903C43.8543 9.49627 43.1317 9.27988 42.3078 9.27988C41.8081 9.27988 41.3692 9.36779 40.991 9.5436C40.6128 9.70589 40.3157 9.94932 40.0996 10.2739C39.897 10.5849 39.7957 10.9501 39.7957 11.3693C39.7957 11.8562 39.951 12.289 40.2617 12.6676C40.5723 13.0463 41.045 13.3303 41.6798 13.5197L44.3135 14.3514C45.5155 14.7165 46.4204 15.244 47.0282 15.9337C47.6359 16.6099 47.9398 17.4551 47.9398 18.4694C47.9398 19.3079 47.717 20.0517 47.2713 20.7009C46.8391 21.35 46.2381 21.8639 45.4682 22.2426C44.6984 22.6078 43.807 22.7903 42.794 22.7903Z" fill="#00145C"/>
</svg>
